<?xml version='1.0' encoding='UTF-8' standalone='no'?>
<svg xmlns="http://www.w3.org/2000/svg"
     version="1.1"
     width="402"
     height="205"
     viewBox="114 45 326.39967 182.70824">
  <g>
    <path style="fill:#000000;"
	d="m 121.91,105.21
	     c -0.68,0 -1.02,0.28 -1.02,0.83
	     l 0.09,0.36
	     l 12.45,62.38
	     c 0.13,0.68 0.52,1.02 1.2,1.02
	     h 9.88
	     c 0.74,0 1.14,-0.34 1.2,-1.02
	     l 4.89,-34.14
	     c 0.05,-0.24 0.14,-0.36 0.27,-0.36
	     c 0.12,0 0.22,0.12 0.28,0.36
	     l 5.44,34.14
	     c 0.06,0.68 0.46,1.02 1.2,1.02
	     h 9.97
	     c 0.74,0 1.14,-0.34 1.2,-1.02
	     l 11.72,-62.38
	     c 0.11,-0.79 -0.23,-1.19 -1.02,-1.19
	     h -10.89
	     c -0.74,0 -1.14,0.34 -1.2,1
	     l -4.7,33.22
	     c -0.06,0.25 -0.16,0.37 -0.28,0.37
	     c -0.12,0 -0.22,-0.12 -0.28,-0.37
	     l -5.44,-33.22
	     c -0.06,-0.66 -0.46,-1 -1.2,-1
	     h -9.31
	     c -0.74,0 -1.14,0.34 -1.2,1
	     l -4.98,33.22
	     c -0.06,0.25 -0.16,0.37 -0.28,0.37
	     c -0.12,0 -0.2,-0.12 -0.27,-0.37
	     l -5.27,-33.22
	     c -0.06,-0.66 -0.46,-1 -1.2,-1
	     z
	     m 74.58,16.43
	     c -5.42,0 -9.7,1.42 -12.83,4.25
	     c -3.14,2.82 -4.7,6.57 -4.7,11.25
	     v 17.89
	     c 0,4.8 1.55,8.59 4.66,11.36
	     c 3.1,2.76 7.39,4.14 12.87,4.14
	     c 5.53,0 9.85,-1.38 12.95,-4.14
	     c 3.11,-2.77 4.67,-6.55 4.67,-11.36
	     v -17.89
	     c 0,-4.68 -1.57,-8.43 -4.7,-11.25
	     c -3.14,-2.83 -7.45,-4.25 -12.92,-4.25
	     z
	     m 43.12,0.17
	     c -3.51,0 -6.09,1.82 -7.75,5.45
	     c -0.12,0.19 -0.23,0.27 -0.33,0.23
	     c -0.09,-0.03 -0.14,-0.17 -0.14,-0.42
	     v -3.59
	     c 0,-0.31 -0.11,-0.57 -0.33,-0.78
	     c -0.21,-0.22 -0.47,-0.33 -0.78,-0.33
	     h -10.8
	     c -0.3,0 -0.56,0.11 -0.78,0.33
	     c -0.22,0.21 -0.33,0.47 -0.33,0.78
	     v 45.11
	     c 0,0.31 0.11,0.58 0.33,0.8
	     c 0.22,0.21 0.48,0.31 0.78,0.31
	     h 10.8
	     c 0.31,0 0.57,-0.1 0.78,-0.31
	     c 0.22,-0.22 0.33,-0.48 0.33,-0.8
	     v -25.38
	     c 0,-1.91 0.43,-3.58 1.28,-5.02
	     c 0.86,-1.45 2,-2.3 3.42,-2.55
	     c 0.68,-0.24 1.48,-0.36 2.41,-0.36
	     c 0.98,0 1.8,0.12 2.48,0.36
	     c 0.43,0.1 0.82,0.21 1.2,0.3
	     c 0.16,-4.75 1.29,-8.78 3.68,-11.84
	     c -0.9,-0.56 -1.91,-1.11 -2.37,-1.38
	     c -0.96,-0.42 -2.22,-0.92 -3.87,-0.92
	     z
	     m -43.13,10.98
	     c 1.35,0 2.46,0.5 3.31,1.48
	     c 0.86,0.98 1.3,2.24 1.3,3.78
	     v 15.95
	     c 0,1.54 -0.43,2.81 -1.3,3.8
	     c -0.86,0.98 -1.96,1.47 -3.31,1.47
	     c -1.36,0 -2.45,-0.49 -3.28,-1.47
	     c -0.82,-0.99 -1.23,-2.25 -1.23,-3.8
	     v -15.95
	     c 0,-1.54 0.41,-2.8 1.23,-3.78
	     c 0.83,-0.99 1.93,-1.48 3.28,-1.48
	     z
	     m 70.19,-26.48
	     c 0,-0.3 0.1,-0.55 0.31,-0.77
	     c 0.22,-0.22 0.48,-0.33 0.8,-0.33
	     h 10.78
	     c 0.31,0 0.57,0.11 0.78,0.33
	     c 0.22,0.21 0.33,0.46 0.33,0.77
	     v 62.38
	     c 0,0.31 -0.11,0.58 -0.33,0.8
	     c -0.21,0.21 -0.47,0.31 -0.78,0.31
	     h -10.78
	     c -0.31,0 -0.58,-0.1 -0.8,-0.31
	     c -0.21,-0.22 -0.31,-0.48 -0.31,-0.8
	     v -1.47
	     c 0,-0.19 -0.06,-0.3 -0.19,-0.33
	     c -0.12,-0.03 -0.25,0.02 -0.37,0.14
	     c -2.09,2.34 -4.85,3.5 -8.3,3.5
	     c -4.25,0 -7.45,-1.36 -9.61,-4.09
	     c -2.15,-2.74 -3.22,-6.54 -3.22,-11.41
	     v -17.89
	     c 0,-4.99 1.09,-8.82 3.27,-11.48
	     c 2.19,-2.68 5.37,-4.02 9.56,-4.02
	     c 1.35,0 2.77,0.26 4.23,0.78
	     c 1.48,0.52 2.83,1.46 4.06,2.81
	     c 0.12,0.12 0.25,0.17 0.37,0.14
	     c 0.13,-0.03 0.19,-0.14 0.19,-0.33
	     z
	     m -4.34,53.06
	     c 1.1,0 2.05,-0.37 2.86,-1.11
	     c 0.8,-0.74 1.3,-1.72 1.48,-2.95
	     v -18.45
	     c -0.19,-1.23 -0.68,-2.21 -1.48,-2.95
	     c -0.8,-0.74 -1.76,-1.11 -2.86,-1.11
	     c -1.29,0 -2.34,0.5 -3.14,1.48
	     c -0.79,0.98 -1.19,2.24 -1.19,3.78
	     v 16.05
	     c 0,1.54 0.39,2.81 1.19,3.8
	     c 0.8,0.98 1.85,1.47 3.14,1.47
	     z"
	  clip-path="url(#clipPath6)"/>
    <path style="fill:#000000;"
	  d="m 388.29,102.43
	     c -2.16,0 -3.91,0.68 -5.27,2.03
	     c -1.36,1.36 -2.03,3.11 -2.03,5.27
	     c 0,2.09 0.69,3.84 2.08,5.22
	     c 1.38,1.37 3.12,2.06 5.22,2.06
	     c 2.08,0 3.8,-0.69 5.16,-2.06
	     c 1.35,-1.38 2.03,-3.13 2.03,-5.22
	     c 0,-2.16 -0.66,-3.91 -1.98,-5.27
	     c -1.32,-1.35 -3.06,-2.03 -5.2,-2.03
	     z
	     m -85.49,2.78
	     c -0.31,0 -0.58,0.11 -0.8,0.33
	     c -0.21,0.21 -0.31,0.46 -0.31,0.77
	     v 62.38
	     c 0,0.31 0.1,0.58 0.31,0.8
	     c 0.22,0.21 0.48,0.31 0.8,0.31
	     h 10.8
	     c 0.3,0 0.55,-0.1 0.77,-0.31
	     c 0.22,-0.22 0.33,-0.48 0.33,-0.8
	     v -25.19
	     c 0,-0.3 0.16,-0.45 0.47,-0.45
	     h 3.14
	     c 0.18,0 0.33,0.12 0.45,0.36
	     l 7.11,25.47
	     c 0.19,0.62 0.62,0.92 1.3,0.92
	     h 11.06
	     c 0.68,0 1.02,-0.3 1.02,-0.92
	     l -0.09,-0.37
	     l -8.48,-27.22
	     c -0.06,-0.11 -0.06,-0.22 0,-0.31
	     c 0.06,-0.09 0.16,-0.17 0.28,-0.23
	     c 2.46,-1.54 4.38,-3.69 5.77,-6.45
	     c 1.38,-2.77 2.08,-5.97 2.08,-9.61
	     c 0,-3.81 -0.73,-7.19 -2.17,-10.14
	     c -1.45,-2.96 -3.5,-5.25 -6.14,-6.87
	     c -2.65,-1.62 -5.66,-2.44 -9.05,-2.44
	     z
	     m 12.36,11.16
	     h 4.16
	     c 1.91,0 3.46,0.76 4.66,2.27
	     c 1.2,1.5 1.8,3.54 1.8,6.12
	     c 0,2.52 -0.6,4.54 -1.8,6.05
	     c -1.2,1.51 -2.75,2.27 -4.66,2.27
	     h -4.16
	     c -0.31,0 -0.47,-0.16 -0.47,-0.47
	     v -15.77
	     c 0,-0.31 0.16,-0.47 0.47,-0.47
	     z
	     m 44.6,5.27
	     c -4.93,0 -8.99,1.34 -12.19,4.02
	     c -3.2,2.67 -4.95,6.25 -5.25,10.73
	     c 0,0.74 0.37,1.11 1.11,1.11
	     l 11.06,0.09
	     c 0.74,0 1.14,-0.37 1.2,-1.11
	     c 0.19,-1.16 0.63,-2.07 1.33,-2.72
	     c 0.71,-0.64 1.59,-0.97 2.64,-0.97
	     c 1.35,0 2.47,0.54 3.36,1.63
	     c 0.89,1.07 1.34,2.44 1.34,4.09
	     v 2.31
	     c 0,0.3 -0.16,0.45 -0.47,0.45
	     h -4.23
	     c -5.97,0 -10.54,1.08 -13.7,3.23
	     c -3.17,2.16 -4.75,6.09 -4.75,11.81
	     c 0,5.53 1.3,9.28 3.92,11.25
	     c 2.61,1.97 5.7,2.95 9.27,2.95
	     c 4.25,-0.12 7.39,-1.48 9.42,-4.06
	     c 0.11,-0.18 0.23,-0.23 0.36,-0.17
	     c 0.13,0.06 0.19,0.18 0.19,0.36
	     v 2.03
	     c 0,0.31 0.1,0.58 0.31,0.8
	     c 0.22,0.21 0.48,0.31 0.8,0.31
	     h 10.8
	     c 0.3,0 0.56,-0.1 0.78,-0.31
	     c 0.22,-0.22 0.33,-0.48 0.33,-0.8
	     v -31.64
	     c 0,-4.61 -1.63,-8.33 -4.89,-11.16
	     c -3.26,-2.83 -7.51,-4.25 -12.73,-4.25
	     z
	     m 62.24,0
	     c -3.51,0 -6.25,1.17 -8.22,3.5
	     c -0.24,0.25 -0.44,0.37 -0.59,0.37
	     c -0.16,0 -0.23,-0.09 -0.23,-0.28
	     v -1.75
	     c 0,-0.31 -0.11,-0.57 -0.33,-0.78
	     c -0.21,-0.22 -0.47,-0.33 -0.78,-0.33
	     h -10.8
	     c -0.3,0 -0.56,0.11 -0.78,0.33
	     c -0.22,0.21 -0.33,0.47 -0.33,0.78
	     v 45.2
	     c 0,0.31 0.11,0.58 0.33,0.8
	     c 0.22,0.21 0.48,0.31 0.78,0.31
	     h 10.8
	     c 0.31,0 0.57,-0.1 0.78,-0.31
	     c 0.22,-0.22 0.33,-0.48 0.33,-0.8
	     v -30.08
	     c 0,-1.84 0.38,-3.27 1.16,-4.28
	     c 0.77,-1.02 1.86,-1.53 3.27,-1.53
	     c 1.35,0 2.38,0.5 3.09,1.48
	     c 0.71,0.98 1.06,2.36 1.06,4.14
	     v 30.27
	     c 0,0.31 0.1,0.58 0.31,0.8
	     c 0.22,0.21 0.48,0.31 0.8,0.31
	     h 10.8
	     c 0.3,0 0.56,-0.1 0.78,-0.31
	     c 0.22,-0.22 0.33,-0.48 0.33,-0.8
	     v -31.28
	     c 0,-4.98 -1.05,-8.85 -3.14,-11.61
	     c -2.09,-2.77 -5.23,-4.16 -9.41,-4.16
	     z
	     m -38.98,0.73
	     c -0.3,0 -0.56,0.11 -0.78,0.33
	     c -0.22,0.21 -0.33,0.47 -0.33,0.78
	     v 45.2
	     c 0,0.31 0.11,0.58 0.33,0.8
	     c 0.22,0.21 0.48,0.31 0.78,0.31
	     h 10.8
	     c 0.3,0 0.56,-0.1 0.78,-0.31
	     c 0.22,-0.22 0.33,-0.48 0.33,-0.8
	     v -45.2
	     c 0,-0.31 -0.11,-0.57 -0.33,-0.78
	     c -0.22,-0.22 -0.48,-0.33 -0.78,-0.33
	     z
	     m -22.91,28.05
	     h 3.78
	     c 0.31,0 0.47,0.15 0.47,0.45
	     v 4.34
	     c 0,1.61 -0.57,2.89 -1.72,3.84
	     c -1.14,0.95 -2.41,1.42 -3.81,1.42
	     c -1.29,0 -2.32,-0.4 -3.09,-1.2
	     c -0.77,-0.8 -1.16,-1.97 -1.16,-3.52
	     c 0,-1.66 0.5,-2.96 1.52,-3.91
	     c 1.02,-0.96 2.36,-1.44 4.02,-1.44
	     z"/>

    <path style="fill:#000000;"
	  d="m 380,170
	     m 0,0
	     c 0,2.5 -3.5,6 -3.5,8.5
	     c 0,2.5 1.5,4 3.5,4
	     c 2,0 3.5,-1.74 3.5,-4
	     c 0,-2.5 -3.5,-6 -3.5,-8.5
	     z
	     m -38,2.5
	     c 0,2.5 -3.5,6 -3.5,8.5
	     c 0,2.5 1.5,4 3.5,4
	     c 2,0 3.5,-1.74 3.5,-4
	     c 0,-2.5 -3.5,-6 -3.5,-8.5
	     z
	     m 76,2.5
	     c 0,2.5 -3.5,6 -3.5,8.5
	     c 0,2.5 1.5,4 3.5,4
	     c 2,0 3.5,-1.74 3.5,-4
	     c 0,-2.5 -3.5,-6 -3.5,-8.5
	     m -21,2.5
	     c 0,2.5 -3.5,6 -3.5,8.5
	     c 0,2.5 1.5,4 3.5,4
	     c 2,0 3.5,-1.74 3.5,-4
	     c 0,-2.5 -3.5,-6 -3.5,-8.5
	     m -34,2.5
	     c 0,2.5 -3.5,6 -3.5,8.5
	     c 0,2.5 1.5,4 3.5,4
	     c 2,0 3.5,-1.74 3.5,-4
	     c 0,-2.5 -3.5,-6 -3.5,-8.5
	     m -42.5,-2.5
	     c 0,2.5 -3.5,6 -3.5,8.5
	     c 0,2.5 1.5,4 3.5,4
	     c 2,0 3.5,-1.74 3.5,-4
	     c 0,-2.5 -3.5,-6 -3.5,-8.5
	     z"/>
  </g>
</svg>
